<svg xmlns="http://www.w3.org/2000/svg" viewBox="0 0 330.58 256.59"><defs><style>.cls-1{fill:#604033;}</style></defs><title>10</title><g id="Слой_2" data-name="Слой 2"><g id="Layer_1" data-name="Layer 1"><path class="cls-1" d="M64.67,251.73V47.29L10.43,72,0,43.46,99.79,0V251.73Z"/><path class="cls-1" d="M330.58,127.25c0,99.44-28.85,129.34-88.31,129.34-59.11,0-88.66-29.9-88.66-129.34,0-98,29.55-123.77,88.66-123.77S330.58,29.21,330.58,127.25Zm-35.46,0c0-81.36-12.87-93.52-53.2-93.52-38.94,0-52.5,12.16-52.5,93.52,0,78.93,13.56,97.7,52.5,97.7C282.25,225,295.12,206.18,295.12,127.25Z"/></g></g></svg>