<?xml version="1.0" encoding="utf-8"?>
<!-- Generator: Adobe Illustrator 23.0.2, SVG Export Plug-In . SVG Version: 6.00 Build 0)  -->
<svg version="1.1" id="Слой_1" xmlns="http://www.w3.org/2000/svg" xmlns:xlink="http://www.w3.org/1999/xlink" x="0px" y="0px"
	 viewBox="0 0 109.6 69.3" style="enable-background:new 0 0 109.6 69.3;" xml:space="preserve">
<style type="text/css">
	.st0{fill:#604033;}
</style>
<title>2321</title>
<g>
	<g id="Слой_1-2">
		<path class="st0" d="M102,29.4L99.1,18c0.8-0.2,1.4-0.9,1.4-1.7v-1.8c0-4-3.2-7.2-7.2-7.2H80.3V3.5c0-2-1.6-3.5-3.6-3.5
			c0,0,0,0,0,0H10.9c-2,0-3.5,1.6-3.5,3.5v31.1c0,0.9,0.8,1.7,1.7,1.7c0.9,0,1.7-0.8,1.7-1.7V3.5c0-0.1,0-0.1,0.1-0.1c0,0,0,0,0,0
			h65.9c0.1,0,0.1,0,0.1,0.1c0,0,0,0,0,0v31.1c0,0.9,0.8,1.7,1.7,1.7s1.7-0.8,1.7-1.7v-1.9h20.3c2.4,0,4.6,1.6,5.3,3.9h-5.3
			c-0.9,0-1.7,0.8-1.7,1.7c0,0,0,0,0,0V42c0,3,2.4,5.4,5.4,5.4h2v7.5h-4.5c-2-5.7-8.1-8.7-13.8-6.7c-3.2,1.1-5.6,3.6-6.7,6.7h-0.8
			V42c0-0.9-0.8-1.7-1.7-1.7s-1.7,0.8-1.7,1.7v12.9H41.3c-2-5.7-8.1-8.7-13.8-6.7c-3.2,1.1-5.7,3.6-6.7,6.7h-9.9
			c-0.1,0-0.1,0-0.1-0.1l0,0V51h7.4c0.9,0.1,1.8-0.6,1.8-1.6c0.1-0.9-0.6-1.8-1.6-1.8c-0.1,0-0.2,0-0.3,0H1.7
			c-0.9-0.1-1.8,0.6-1.8,1.6c-0.1,0.9,0.6,1.8,1.6,1.8c0.1,0,0.2,0,0.3,0h5.6v3.8c0,2,1.6,3.5,3.6,3.5h9.3v0.1
			c0,6,4.9,10.9,10.9,10.9c6,0,10.9-4.9,10.9-10.9v-0.1h38.7c0,0,0,0.1,0,0.1c0.2,6,5.2,10.7,11.2,10.5c5.8-0.2,10.4-4.8,10.5-10.5
			c0,0,0-0.1,0-0.1h5.6c0.9,0,1.7-0.8,1.7-1.7c0,0,0,0,0,0V38.3C109.6,33.9,106.4,30.1,102,29.4z M80.3,10.8h12.9
			c2.1,0,3.7,1.7,3.7,3.8v0.1H80.3V10.8z M80.3,29.3V18.1h15.3l2.8,11.2H80.3z M31,65.9c-4.1,0-7.4-3.3-7.4-7.4
			c0-4.1,3.3-7.4,7.4-7.4s7.4,3.3,7.4,7.4c0,0,0,0,0,0C38.4,62.6,35.1,65.9,31,65.9z M91.4,65.9c-4.1,0-7.4-3.3-7.4-7.4
			c0-4.1,3.3-7.4,7.4-7.4c4.1,0,7.4,3.3,7.4,7.4c0,0,0,0,0,0C98.8,62.6,95.5,65.9,91.4,65.9L91.4,65.9z M106.2,43.9h-2
			c-1,0-1.9-0.9-1.9-1.9v-2h3.9L106.2,43.9L106.2,43.9z"/>
		<path class="st0" d="M31,54.9c-2,0-3.6,1.6-3.6,3.5c0,2,1.6,3.5,3.6,3.5s3.5-1.6,3.5-3.5l0,0C34.5,56.5,33,54.9,31,54.9z"/>
		<path class="st0" d="M91.4,54.9c-2,0-3.5,1.6-3.5,3.6s1.6,3.5,3.6,3.5c2,0,3.5-1.6,3.5-3.5C95,56.5,93.4,54.9,91.4,54.9
			C91.4,54.9,91.4,54.9,91.4,54.9z"/>
		<path class="st0" d="M71.3,47.6H45.7c-0.9-0.1-1.8,0.6-1.8,1.6c-0.1,0.9,0.6,1.8,1.6,1.8c0.1,0,0.2,0,0.3,0h25.6
			c0.9-0.1,1.7-0.9,1.6-1.8C72.8,48.3,72.1,47.7,71.3,47.6z"/>
		<path class="st0" d="M27.4,40.3h-22c-0.9-0.1-1.8,0.6-1.8,1.6c-0.1,0.9,0.6,1.8,1.6,1.8c0.1,0,0.2,0,0.3,0h22
			c0.9-0.1,1.7-0.9,1.6-1.8C28.9,41,28.2,40.3,27.4,40.3z"/>
		<path class="st0" d="M59.7,17c-0.7-0.7-1.8-0.7-2.4,0c0,0,0,0,0,0L42,32.2l-8-7.9c-0.7-0.7-1.8-0.7-2.4,0c-0.7,0.7-0.7,1.8,0,2.4
			l9.1,9.1c0.3,0.3,0.8,0.5,1.2,0.5c0.5,0,0.9-0.2,1.2-0.5l16.5-16.5C60.3,18.7,60.3,17.7,59.7,17z"/>
	</g>
</g>
</svg>
