<svg xmlns="http://www.w3.org/2000/svg" viewBox="0 0 36.5 36.42"><defs><style>.cls-1{fill:#fff;}</style></defs><title>phone</title><g id="Слой_2" data-name="Слой 2"><g id="Слой_1-2" data-name="Слой 1"><path class="cls-1" d="M35.68,28.8,30,23.17a2.93,2.93,0,0,0-4.14.07l-2.84,2.84-.56-.31a28,28,0,0,1-6.83-4.94A28.6,28.6,0,0,1,10.72,14l-.31-.55,1.91-1.9.94-.94a2.93,2.93,0,0,0,.07-4.14L7.7.82A2.94,2.94,0,0,0,3.55.9L2,2.49l0,0A8.87,8.87,0,0,0,.7,4.85,9,9,0,0,0,.12,7.19C-.63,13.36,2.19,19,9.84,26.65,20.42,37.23,29,36.43,29.31,36.39a9.88,9.88,0,0,0,2.35-.59A9.25,9.25,0,0,0,34,34.5l0,0L35.61,33A3,3,0,0,0,35.68,28.8Z"/></g></g></svg>