<svg xmlns="http://www.w3.org/2000/svg" viewBox="0 0 253.08 160.09"><defs><style>.cls-1{fill:#191919;}</style></defs><title>truck</title><g id="Слой_2" data-name="Слой 2"><g id="Слой_1-2" data-name="Слой 1"><path class="cls-1" d="M235.36,67.87l-6.55-26.22A4,4,0,0,0,232,37.78V33.55A16.66,16.66,0,0,0,215.3,16.91H185.45V8.19A8.19,8.19,0,0,0,177.26,0H25.1a8.19,8.19,0,0,0-8.19,8.19V80.05a4,4,0,1,0,7.92,0V8.19a.26.26,0,0,1,.27-.26H177.26a.25.25,0,0,1,.26.26V80.05a4,4,0,0,0,7.93,0v-4.5h46.77a13,13,0,0,1,12.31,9H232.21a4,4,0,0,0-4,4V97a12.43,12.43,0,0,0,12.41,12.42h4.49V126.8H234.79a25.09,25.09,0,0,0-47.43,0h-1.91V97a4,4,0,0,0-7.93,0V126.8H95.31a25.1,25.1,0,0,0-47.44,0H25.1a.27.27,0,0,1-.27-.26v-8.72H42a4,4,0,1,0,0-7.92H4a4,4,0,0,0,0,7.92h13v8.72a8.2,8.2,0,0,0,8.19,8.19H46.5c0,.09,0,.17,0,.26a25.1,25.1,0,1,0,50.2,0c0-.09,0-.17,0-.26H186V135a25.1,25.1,0,1,0,50.19,0c0-.09,0-.17,0-.26h13a4,4,0,0,0,4-4V88.5A20.89,20.89,0,0,0,235.36,67.87Zm-49.91-43H215.3A8.73,8.73,0,0,1,224,33.55v.26H185.45Zm0,42.8V41.74h35.21l6.47,25.89ZM71.59,152.16A17.17,17.17,0,1,1,88.76,135,17.19,17.19,0,0,1,71.59,152.16Zm139.49,0A17.17,17.17,0,1,1,228.25,135,17.19,17.19,0,0,1,211.08,152.16Zm34.07-50.72h-4.49A4.5,4.5,0,0,1,236.17,97V92.46h9v9Z"/><path class="cls-1" d="M164.58,109.9H105.41a4,4,0,1,0,0,7.92h59.17a4,4,0,0,0,0-7.92Z"/><path class="cls-1" d="M63.14,93H12.42a4,4,0,1,0,0,7.93H63.14a4,4,0,0,0,0-7.93Z"/><path class="cls-1" d="M137.8,39.2a4,4,0,0,0-5.61,0L97,74.44,78.62,56.11a4,4,0,1,0-5.6,5.6L94.15,82.85a4,4,0,0,0,5.6,0l38-38A4,4,0,0,0,137.8,39.2Z"/></g></g></svg>