<svg xmlns="http://www.w3.org/2000/svg" viewBox="0 0 120.32 122.29"><defs><style>.cls-1{fill:#ff7d13;}</style></defs><title>up_2</title><g id="Слой_2" data-name="Слой 2"><g id="Слой_1-2" data-name="Слой 1"><path class="cls-1" d="M117.47,57.16,67.19,3.07a9.23,9.23,0,0,0-7-3.07,8.83,8.83,0,0,0-6.95,3.07L2.93,57.16A10.72,10.72,0,0,0,0,64.72a10.61,10.61,0,0,0,2.93,7.47l5.8,6.23a8.86,8.86,0,0,0,7,3.16,8.87,8.87,0,0,0,7-3.16l22.7-24.34v58.49a9.16,9.16,0,0,0,2.9,7,9.88,9.88,0,0,0,7,2.7H65.1a9.88,9.88,0,0,0,7-2.7,9.16,9.16,0,0,0,2.9-7V54.08L97.7,78.42a8.86,8.86,0,0,0,7,3.16,9.26,9.26,0,0,0,7-3.16l5.79-6.23a11,11,0,0,0,2.85-7.47A11.09,11.09,0,0,0,117.47,57.16Z"/></g></g></svg>