<svg xmlns="http://www.w3.org/2000/svg" viewBox="0 0 512.16 418.13"><defs><style>.cls-1{fill:#604033;}</style></defs><title>сreedit</title><g id="Слой_2" data-name="Слой 2"><g id="Layer_1" data-name="Layer 1"><path class="cls-1" d="M273.07,290.13H409.6c5.12,0,8.53-3.41,8.53-8.53V204.8c0-5.12-3.41-8.53-8.53-8.53H273.07c-5.12,0-8.54,3.41-8.54,8.53v76.8C264.53,286.72,268,290.13,273.07,290.13Zm8.53-76.8H401.07v59.74H281.6Z"/><path class="cls-1" d="M42.67,179.2h68.26c5.12,0,8.54-3.41,8.54-8.53s-3.42-8.54-8.54-8.54H42.67c-5.12,0-8.54,3.42-8.54,8.54S37.55,179.2,42.67,179.2Z"/><path class="cls-1" d="M145.07,179.2h68.26c5.12,0,8.54-3.41,8.54-8.53s-3.42-8.54-8.54-8.54H145.07c-5.12,0-8.54,3.42-8.54,8.54S140,179.2,145.07,179.2Z"/><path class="cls-1" d="M42.67,213.33H153.6c5.12,0,8.53-3.41,8.53-8.53s-3.41-8.53-8.53-8.53H42.67c-5.12,0-8.54,3.41-8.54,8.53S37.55,213.33,42.67,213.33Z"/><path class="cls-1" d="M213.33,196.27h-25.6c-5.12,0-8.53,3.41-8.53,8.53s3.41,8.53,8.53,8.53h25.6c5.12,0,8.54-3.41,8.54-8.53S218.45,196.27,213.33,196.27Z"/><path class="cls-1" d="M504.32,90.45a31.8,31.8,0,0,0-23-12.8L460.8,75.17v-41A34.23,34.23,0,0,0,426.67,0H34.13A34.23,34.23,0,0,0,0,34.13V307.2a34.27,34.27,0,0,0,24.45,32.72,33.21,33.21,0,0,0,30.16,33.84l394.24,44.37h3.42c17.06,0,32.42-12.8,34.13-29L512,115.2A33.21,33.21,0,0,0,504.32,90.45ZM17.07,59.73H443.73v51.2H17.07ZM34.13,17.07H426.67a17.11,17.11,0,0,1,17.06,17.06v8.54H17.07V34.13A17.11,17.11,0,0,1,34.13,17.07ZM17.07,307.2V128H443.73V307.2a17.12,17.12,0,0,1-17.06,17.07H34.13A17.12,17.12,0,0,1,17.07,307.2ZM494.93,111.79l-25.6,273.92a17.21,17.21,0,0,1-18.77,15.36L57.17,356.69a17.26,17.26,0,0,1-15.36-15.36H426.67A34.23,34.23,0,0,0,460.8,307.2V91.31L480.43,93c4.26,0,8.53,2.56,11.09,6S495.79,107.52,494.93,111.79Z"/></g></g></svg>